<mxfile host="app.diagrams.net" modified="2024-01-12T16:05:01.537Z" agent="Mozilla/5.0 (Windows NT 10.0; Win64; x64) AppleWebKit/537.36 (KHTML, like Gecko) Chrome/118.0.0.0 YaBrowser/23.11.0.0 Safari/537.36" etag="zBo07zvmvR9AE_wdEsoi" version="22.1.18" type="device">
  <diagram name="Страница — 1" id="ps-kaqrLJHknkC93EsDr">
    <mxGraphModel dx="971" dy="523" grid="1" gridSize="10" guides="1" tooltips="1" connect="1" arrows="1" fold="1" page="1" pageScale="1" pageWidth="827" pageHeight="1169" background="#000000" math="0" shadow="1">
      <root>
        <mxCell id="0" />
        <mxCell id="1" parent="0" />
        <mxCell id="ZLiNuhUTTzIbbJe09-X9-4" value="" style="endArrow=classic;html=1;rounded=0;entryX=0.25;entryY=0;entryDx=0;entryDy=0;" edge="1" parent="1">
          <mxGeometry width="50" height="50" relative="1" as="geometry">
            <mxPoint x="440" y="80" as="sourcePoint" />
            <mxPoint x="440" y="170" as="targetPoint" />
          </mxGeometry>
        </mxCell>
        <mxCell id="ZLiNuhUTTzIbbJe09-X9-5" value="База Данных" style="text;html=1;align=center;verticalAlign=middle;resizable=0;points=[];autosize=1;strokeColor=none;fillColor=none;" vertex="1" parent="1">
          <mxGeometry x="440" y="78" width="100" height="30" as="geometry" />
        </mxCell>
        <mxCell id="ZLiNuhUTTzIbbJe09-X9-6" value="" style="endArrow=classic;html=1;rounded=0;exitX=1.014;exitY=0.315;exitDx=0;exitDy=0;exitPerimeter=0;" edge="1" parent="1">
          <mxGeometry width="50" height="50" relative="1" as="geometry">
            <mxPoint x="559.9999999999999" y="235.45000000000005" as="sourcePoint" />
            <mxPoint x="750" y="235" as="targetPoint" />
          </mxGeometry>
        </mxCell>
        <mxCell id="ZLiNuhUTTzIbbJe09-X9-7" value="Учебные материалы(Теория)" style="text;html=1;align=center;verticalAlign=middle;resizable=0;points=[];autosize=1;strokeColor=none;fillColor=none;" vertex="1" parent="1">
          <mxGeometry x="550" y="200" width="190" height="30" as="geometry" />
        </mxCell>
        <mxCell id="ZLiNuhUTTzIbbJe09-X9-8" value="" style="endArrow=classic;html=1;rounded=0;exitX=1.014;exitY=0.315;exitDx=0;exitDy=0;exitPerimeter=0;" edge="1" parent="1">
          <mxGeometry width="50" height="50" relative="1" as="geometry">
            <mxPoint x="559.9999999999999" y="270.45000000000005" as="sourcePoint" />
            <mxPoint x="750" y="270" as="targetPoint" />
          </mxGeometry>
        </mxCell>
        <mxCell id="ZLiNuhUTTzIbbJe09-X9-10" value="Запуск бота" style="rounded=0;whiteSpace=wrap;html=1;fontColor=#FFFFFF;labelBackgroundColor=none;strokeColor=#FFFFFF;fillColor=#000000;" vertex="1" parent="1">
          <mxGeometry x="170" y="550" width="100" height="50" as="geometry" />
        </mxCell>
        <mxCell id="ZLiNuhUTTzIbbJe09-X9-11" value="Личный кабинет" style="rounded=0;whiteSpace=wrap;html=1;fontColor=#FFFFFF;labelBackgroundColor=none;strokeColor=#FFFFFF;fillColor=#000000;" vertex="1" parent="1">
          <mxGeometry x="380" y="440" width="100" height="50" as="geometry" />
        </mxCell>
        <mxCell id="ZLiNuhUTTzIbbJe09-X9-12" value="ТехПоддержка" style="rounded=0;whiteSpace=wrap;html=1;fontColor=#FFFFFF;labelBackgroundColor=none;strokeColor=#FFFFFF;fillColor=#000000;" vertex="1" parent="1">
          <mxGeometry x="380" y="550" width="100" height="50" as="geometry" />
        </mxCell>
        <mxCell id="ZLiNuhUTTzIbbJe09-X9-13" value="Выбор языка программирования и темы" style="rounded=0;whiteSpace=wrap;html=1;fontSize=10;fontColor=#FFFFFF;labelBackgroundColor=none;strokeColor=#FFFFFF;fillColor=#000000;" vertex="1" parent="1">
          <mxGeometry x="380" y="650" width="100" height="50" as="geometry" />
        </mxCell>
        <mxCell id="ZLiNuhUTTzIbbJe09-X9-14" value="Просмотр теории" style="rounded=0;whiteSpace=wrap;html=1;fontColor=#FFFFFF;labelBackgroundColor=none;strokeColor=#FFFFFF;fillColor=#000000;" vertex="1" parent="1">
          <mxGeometry x="595" y="620" width="100" height="50" as="geometry" />
        </mxCell>
        <mxCell id="ZLiNuhUTTzIbbJe09-X9-15" value="Просмотр и решение задач" style="rounded=0;whiteSpace=wrap;html=1;fontColor=#FFFFFF;labelBackgroundColor=none;strokeColor=#FFFFFF;fillColor=#000000;" vertex="1" parent="1">
          <mxGeometry x="595" y="680" width="100" height="50" as="geometry" />
        </mxCell>
        <mxCell id="ZLiNuhUTTzIbbJe09-X9-17" value="Настройки" style="rounded=0;whiteSpace=wrap;html=1;fontColor=#FFFFFF;labelBackgroundColor=none;strokeColor=#FFFFFF;fillColor=#000000;" vertex="1" parent="1">
          <mxGeometry x="595" y="410" width="100" height="50" as="geometry" />
        </mxCell>
        <mxCell id="ZLiNuhUTTzIbbJe09-X9-18" value="Прогресс" style="rounded=0;whiteSpace=wrap;html=1;fontColor=#FFFFFF;labelBackgroundColor=none;strokeColor=#FFFFFF;fillColor=#000000;" vertex="1" parent="1">
          <mxGeometry x="595" y="470" width="100" height="50" as="geometry" />
        </mxCell>
        <mxCell id="ZLiNuhUTTzIbbJe09-X9-19" value="Отправка заявки" style="rounded=0;whiteSpace=wrap;html=1;fontColor=#FFFFFF;labelBackgroundColor=none;strokeColor=#FFFFFF;fillColor=#000000;" vertex="1" parent="1">
          <mxGeometry x="595" y="550" width="100" height="50" as="geometry" />
        </mxCell>
        <mxCell id="ZLiNuhUTTzIbbJe09-X9-21" value="" style="endArrow=classic;html=1;rounded=0;exitX=1;exitY=0.5;exitDx=0;exitDy=0;entryX=0;entryY=0.5;entryDx=0;entryDy=0;fontColor=#FFFFFF;labelBackgroundColor=none;strokeColor=#FFFFFF;" edge="1" parent="1" source="ZLiNuhUTTzIbbJe09-X9-10" target="ZLiNuhUTTzIbbJe09-X9-12">
          <mxGeometry width="50" height="50" relative="1" as="geometry">
            <mxPoint x="300" y="610" as="sourcePoint" />
            <mxPoint x="350" y="560" as="targetPoint" />
          </mxGeometry>
        </mxCell>
        <mxCell id="ZLiNuhUTTzIbbJe09-X9-22" value="" style="endArrow=classic;html=1;rounded=0;exitX=1;exitY=0.205;exitDx=0;exitDy=0;entryX=0;entryY=0.5;entryDx=0;entryDy=0;exitPerimeter=0;fontColor=#FFFFFF;labelBackgroundColor=none;strokeColor=#FFFFFF;" edge="1" parent="1" source="ZLiNuhUTTzIbbJe09-X9-10" target="ZLiNuhUTTzIbbJe09-X9-11">
          <mxGeometry width="50" height="50" relative="1" as="geometry">
            <mxPoint x="280" y="530" as="sourcePoint" />
            <mxPoint x="390" y="530" as="targetPoint" />
            <Array as="points">
              <mxPoint x="330" y="560" />
              <mxPoint x="330" y="465" />
            </Array>
          </mxGeometry>
        </mxCell>
        <mxCell id="ZLiNuhUTTzIbbJe09-X9-23" value="" style="endArrow=classic;html=1;rounded=0;exitX=0.996;exitY=0.794;exitDx=0;exitDy=0;entryX=0;entryY=0.5;entryDx=0;entryDy=0;exitPerimeter=0;fontColor=#FFFFFF;labelBackgroundColor=none;strokeColor=#FFFFFF;" edge="1" parent="1" source="ZLiNuhUTTzIbbJe09-X9-10" target="ZLiNuhUTTzIbbJe09-X9-13">
          <mxGeometry width="50" height="50" relative="1" as="geometry">
            <mxPoint x="280" y="660" as="sourcePoint" />
            <mxPoint x="330" y="610" as="targetPoint" />
            <Array as="points">
              <mxPoint x="330" y="590" />
              <mxPoint x="330" y="675" />
            </Array>
          </mxGeometry>
        </mxCell>
        <mxCell id="ZLiNuhUTTzIbbJe09-X9-24" value="" style="endArrow=classic;html=1;rounded=0;entryX=0;entryY=0.5;entryDx=0;entryDy=0;fontColor=#FFFFFF;labelBackgroundColor=none;strokeColor=#FFFFFF;" edge="1" parent="1" target="ZLiNuhUTTzIbbJe09-X9-10">
          <mxGeometry width="50" height="50" relative="1" as="geometry">
            <mxPoint x="90" y="575" as="sourcePoint" />
            <mxPoint x="130" y="570" as="targetPoint" />
          </mxGeometry>
        </mxCell>
        <mxCell id="ZLiNuhUTTzIbbJe09-X9-25" value="Пользователь" style="text;html=1;align=center;verticalAlign=middle;resizable=0;points=[];autosize=1;strokeColor=none;fillColor=none;fontColor=#FFFFFF;labelBackgroundColor=none;" vertex="1" parent="1">
          <mxGeometry x="60" y="548" width="100" height="30" as="geometry" />
        </mxCell>
        <mxCell id="ZLiNuhUTTzIbbJe09-X9-26" value="Информация о пользователе" style="text;html=1;align=center;verticalAlign=middle;resizable=0;points=[];autosize=1;strokeColor=none;fillColor=none;fontColor=#FFFFFF;labelBackgroundColor=none;" vertex="1" parent="1">
          <mxGeometry x="130" y="480" width="190" height="30" as="geometry" />
        </mxCell>
        <mxCell id="ZLiNuhUTTzIbbJe09-X9-27" value="" style="endArrow=classic;html=1;rounded=0;exitX=0.997;exitY=0.783;exitDx=0;exitDy=0;entryX=0.02;entryY=0.169;entryDx=0;entryDy=0;entryPerimeter=0;exitPerimeter=0;fontColor=#FFFFFF;labelBackgroundColor=none;strokeColor=#FFFFFF;" edge="1" parent="1" source="ZLiNuhUTTzIbbJe09-X9-11" target="ZLiNuhUTTzIbbJe09-X9-18">
          <mxGeometry width="50" height="50" relative="1" as="geometry">
            <mxPoint x="530" y="530" as="sourcePoint" />
            <mxPoint x="580" y="480" as="targetPoint" />
          </mxGeometry>
        </mxCell>
        <mxCell id="ZLiNuhUTTzIbbJe09-X9-28" value="" style="endArrow=classic;html=1;rounded=0;exitX=1;exitY=0.25;exitDx=0;exitDy=0;entryX=0.019;entryY=0.844;entryDx=0;entryDy=0;entryPerimeter=0;fontColor=#FFFFFF;labelBackgroundColor=none;strokeColor=#FFFFFF;" edge="1" parent="1" source="ZLiNuhUTTzIbbJe09-X9-11" target="ZLiNuhUTTzIbbJe09-X9-17">
          <mxGeometry width="50" height="50" relative="1" as="geometry">
            <mxPoint x="500" y="470" as="sourcePoint" />
            <mxPoint x="580" y="450" as="targetPoint" />
          </mxGeometry>
        </mxCell>
        <mxCell id="ZLiNuhUTTzIbbJe09-X9-31" value="" style="endArrow=classic;html=1;rounded=0;exitX=1;exitY=0.5;exitDx=0;exitDy=0;entryX=0;entryY=0.5;entryDx=0;entryDy=0;fontColor=#FFFFFF;labelBackgroundColor=none;strokeColor=#FFFFFF;" edge="1" parent="1" source="ZLiNuhUTTzIbbJe09-X9-12" target="ZLiNuhUTTzIbbJe09-X9-19">
          <mxGeometry width="50" height="50" relative="1" as="geometry">
            <mxPoint x="520" y="600" as="sourcePoint" />
            <mxPoint x="570" y="550" as="targetPoint" />
          </mxGeometry>
        </mxCell>
        <mxCell id="ZLiNuhUTTzIbbJe09-X9-32" value="" style="endArrow=classic;html=1;rounded=0;entryX=0;entryY=0.8;entryDx=0;entryDy=0;entryPerimeter=0;fontColor=#FFFFFF;labelBackgroundColor=none;strokeColor=#FFFFFF;" edge="1" parent="1" target="ZLiNuhUTTzIbbJe09-X9-13">
          <mxGeometry width="50" height="50" relative="1" as="geometry">
            <mxPoint x="100" y="690" as="sourcePoint" />
            <mxPoint x="370" y="690" as="targetPoint" />
          </mxGeometry>
        </mxCell>
        <mxCell id="ZLiNuhUTTzIbbJe09-X9-33" value="Информация из базы данных" style="text;html=1;align=center;verticalAlign=middle;resizable=0;points=[];autosize=1;strokeColor=none;fillColor=none;fontColor=#FFFFFF;labelBackgroundColor=none;" vertex="1" parent="1">
          <mxGeometry x="95" y="700" width="190" height="30" as="geometry" />
        </mxCell>
        <mxCell id="ZLiNuhUTTzIbbJe09-X9-34" value="" style="endArrow=classic;html=1;rounded=0;entryX=0;entryY=0.75;entryDx=0;entryDy=0;exitX=0.992;exitY=0.147;exitDx=0;exitDy=0;exitPerimeter=0;fontColor=#FFFFFF;labelBackgroundColor=none;strokeColor=#FFFFFF;" edge="1" parent="1" source="ZLiNuhUTTzIbbJe09-X9-13" target="ZLiNuhUTTzIbbJe09-X9-14">
          <mxGeometry width="50" height="50" relative="1" as="geometry">
            <mxPoint x="520" y="700" as="sourcePoint" />
            <mxPoint x="570" y="650" as="targetPoint" />
          </mxGeometry>
        </mxCell>
        <mxCell id="ZLiNuhUTTzIbbJe09-X9-35" value="" style="endArrow=classic;html=1;rounded=0;exitX=0.998;exitY=0.802;exitDx=0;exitDy=0;exitPerimeter=0;entryX=-0.005;entryY=0.191;entryDx=0;entryDy=0;entryPerimeter=0;fontColor=#FFFFFF;labelBackgroundColor=none;strokeColor=#FFFFFF;" edge="1" parent="1" source="ZLiNuhUTTzIbbJe09-X9-13" target="ZLiNuhUTTzIbbJe09-X9-15">
          <mxGeometry width="50" height="50" relative="1" as="geometry">
            <mxPoint x="520" y="740" as="sourcePoint" />
            <mxPoint x="570" y="690" as="targetPoint" />
          </mxGeometry>
        </mxCell>
        <mxCell id="ZLiNuhUTTzIbbJe09-X9-36" value="Информация о пользователе" style="text;html=1;align=center;verticalAlign=middle;resizable=0;points=[];autosize=1;strokeColor=#FFFFFF;fillColor=none;fontColor=#FFFFFF;labelBackgroundColor=none;" vertex="1" parent="1">
          <mxGeometry x="130" y="630" width="190" height="30" as="geometry" />
        </mxCell>
        <mxCell id="ZLiNuhUTTzIbbJe09-X9-37" value="" style="endArrow=classic;html=1;rounded=0;exitX=1;exitY=0.5;exitDx=0;exitDy=0;strokeColor=#FFFFFF;" edge="1" parent="1" source="ZLiNuhUTTzIbbJe09-X9-19">
          <mxGeometry width="50" height="50" relative="1" as="geometry">
            <mxPoint x="740" y="610" as="sourcePoint" />
            <mxPoint x="1000" y="575" as="targetPoint" />
          </mxGeometry>
        </mxCell>
        <mxCell id="ZLiNuhUTTzIbbJe09-X9-38" value="Добавление заявки в базу данных" style="text;html=1;align=center;verticalAlign=middle;resizable=0;points=[];autosize=1;strokeColor=none;fillColor=none;fontColor=#FFFFFF;labelBackgroundColor=none;" vertex="1" parent="1">
          <mxGeometry x="695" y="540" width="210" height="30" as="geometry" />
        </mxCell>
        <mxCell id="ZLiNuhUTTzIbbJe09-X9-39" value="" style="endArrow=classic;html=1;rounded=0;exitX=1;exitY=0.5;exitDx=0;exitDy=0;strokeColor=#FFFFFF;" edge="1" parent="1" source="ZLiNuhUTTzIbbJe09-X9-17">
          <mxGeometry width="50" height="50" relative="1" as="geometry">
            <mxPoint x="760" y="470" as="sourcePoint" />
            <mxPoint x="1000" y="435" as="targetPoint" />
          </mxGeometry>
        </mxCell>
        <mxCell id="ZLiNuhUTTzIbbJe09-X9-40" value="Смена языка пользователя" style="text;html=1;align=center;verticalAlign=middle;resizable=0;points=[];autosize=1;strokeColor=none;fillColor=none;fontColor=#FFFFFF;labelBackgroundColor=none;" vertex="1" parent="1">
          <mxGeometry x="695" y="398" width="180" height="30" as="geometry" />
        </mxCell>
        <mxCell id="ZLiNuhUTTzIbbJe09-X9-41" value="" style="endArrow=classic;html=1;rounded=0;exitX=1;exitY=0.5;exitDx=0;exitDy=0;strokeColor=#FFFFFF;" edge="1" parent="1" source="ZLiNuhUTTzIbbJe09-X9-15">
          <mxGeometry width="50" height="50" relative="1" as="geometry">
            <mxPoint x="770" y="740" as="sourcePoint" />
            <mxPoint x="1000" y="705" as="targetPoint" />
          </mxGeometry>
        </mxCell>
        <mxCell id="ZLiNuhUTTzIbbJe09-X9-42" value="" style="endArrow=classic;html=1;rounded=0;entryX=0;entryY=0.8;entryDx=0;entryDy=0;entryPerimeter=0;fontColor=#FFFFFF;labelBackgroundColor=none;strokeColor=#FFFFFF;" edge="1" parent="1">
          <mxGeometry width="50" height="50" relative="1" as="geometry">
            <mxPoint x="100" y="450" as="sourcePoint" />
            <mxPoint x="380" y="450" as="targetPoint" />
          </mxGeometry>
        </mxCell>
        <mxCell id="ZLiNuhUTTzIbbJe09-X9-43" value="Информация из базы данных" style="text;html=1;align=center;verticalAlign=middle;resizable=0;points=[];autosize=1;strokeColor=none;fillColor=none;fontColor=#FFFFFF;labelBackgroundColor=none;" vertex="1" parent="1">
          <mxGeometry x="125" y="410" width="190" height="30" as="geometry" />
        </mxCell>
        <mxCell id="ZLiNuhUTTzIbbJe09-X9-44" value="Изменение статуса задачи (решено/нерешено)" style="text;html=1;align=center;verticalAlign=middle;resizable=0;points=[];autosize=1;strokeColor=none;fillColor=none;fontColor=#FFFFFF;" vertex="1" parent="1">
          <mxGeometry x="700" y="670" width="290" height="30" as="geometry" />
        </mxCell>
      </root>
    </mxGraphModel>
  </diagram>
</mxfile>
